<?xml version="1.0" standalone="no"?>
<!DOCTYPE svg PUBLIC "-//W3C//DTD SVG 1.1//EN" "http://www.w3.org/Graphics/SVG/1.1/DTD/svg11.dtd" >
<svg xmlns="http://www.w3.org/2000/svg">
<metadata></metadata>
<defs>
<font id="bellbottom.laserlaser" horiz-adv-x="870" >
<font-face units-per-em="2048" ascent="1638" descent="-410" />
<missing-glyph horiz-adv-x="1024" />
<glyph horiz-adv-x="0" />
<glyph horiz-adv-x="682" />
<glyph unicode=" "  horiz-adv-x="1024" />
<glyph unicode="&#x09;" horiz-adv-x="1024" />
<glyph unicode="&#xa0;" horiz-adv-x="1024" />
<glyph unicode="!" horiz-adv-x="935" d="M43 319q0 92 20.5 181.5t57.5 180.5t113.5 113.5t222.5 36.5q92 0 145 -16t76 -86q0 -102 109.5 -280.5t109.5 -258.5q0 -55 -25.5 -101t-91.5 -95q-66 -35 -155.5 -57.5t-173.5 -22.5q-88 0 -166 23.5t-134.5 77t-82 131t-25.5 173.5zM78 1489q0 27 21.5 55.5t70.5 57.5 q53 27 131 41t160 14q145 0 260 -41t133 -115q8 -84 -104.5 -183t-124.5 -167q0 -25 13 -84t13 -80q0 -23 -6 -47q-27 -35 -70 -50.5t-98 -15.5q-45 0 -96 9.5t-94 23.5q-49 23 -49 94q0 27 4 45.5t12 45.5q29 41 29 84q0 66 -102.5 166t-102.5 147z" />
<glyph unicode="&#x22;" horiz-adv-x="1019" d="M6 1556q0 31 12 66q16 94 72.5 167t140.5 103q61 6 110.5 -29.5t74.5 -90.5q16 -45 22 -90.5t6 -102.5q0 -125 -42 -251t-113 -241q-68 -76 -113 -102.5t-88 -26.5q-16 0 -25 3q-14 23 -14 47q0 33 41 96t49 94q4 29 4 39q0 51 -68.5 159.5t-68.5 159.5zM504 1581 q0 31 12 66q16 94 72.5 166.5t140.5 103.5q61 6 110 -30t74 -91q16 -45 22.5 -90t6.5 -102q0 -125 -42 -251t-114 -241q-68 -76 -112.5 -102.5t-87.5 -26.5q-16 0 -25 2q-14 23 -14 47q0 33 41 96.5t49 94.5q4 29 4 39q0 51 -68.5 159.5t-68.5 159.5z" />
<glyph unicode="$" horiz-adv-x="794" d="M37 629q0 156 45 282q23 31 47 31q25 0 69 -44t62 -44q14 0 29.5 13.5t29.5 43.5q-10 55 -99 131t-99 117t-10 72q0 27 9 61.5t44 65.5q18 27 98 59.5t84 83.5l14 53q18 8 37 9q37 0 54.5 -35t17.5 -76q72 -16 127 -51t76 -94q6 -31 7 -40.5t1 -31.5q0 -35 -9 -61.5 t-35 -47t-65 -20.5q-31 0 -67 16q-23 16 -33 84t-57 74q-29 -10 -50.5 -25.5t-29.5 -42.5q35 -78 196.5 -176t195.5 -202.5t34 -227.5q0 -186 -76 -323q-18 -76 -138 -116t-120 -120q0 -23 2 -35q-4 -2 -14.5 -4t-30.5 -2h-37q-12 23 -16 49.5t-4 59.5q-178 51 -252 229 q-37 133 -37 285z" />
<glyph unicode="&#x26;" horiz-adv-x="1359" d="M61 438q0 182 95.5 364.5t246.5 346.5q-8 31 -58 141.5t-50 169.5q0 33 10 64.5t42 65.5t79 49.5t102 15.5q29 0 62 -3t76 -12.5t84 -44.5t59 -82q14 -37 14 -77q0 -76 -63.5 -163t-120.5 -165q0 -82 81 -203t89 -143q12 -6 22 -6q25 0 56 51t57 51q18 0 41 -14 q39 -51 54.5 -119t15.5 -150q0 -43 -4 -97t-9 -97q80 -158 126 -210t114 -71q16 -12 16 -37q-2 -27 -2 -38q-72 -82 -184 -82q-63 0 -126.5 46t-121.5 89q-51 -61 -133 -89t-172 -28q-53 0 -99 5t-109.5 17.5t-122 58.5t-99.5 110q-35 72 -51.5 143.5t-16.5 142.5zM444 825 q0 -57 60 -104q23 -14 47 -14q25 0 37 14q-20 76 -41 124t-62 85l-26 -41q-14 -31 -15 -64zM487 1462q0 -12 7 -24q18 -63 27 -87t32 -48q43 57 58.5 86.5t9.5 74.5q-8 27 -31.5 44.5t-50.5 11.5q-51 -10 -52 -58z" />
<glyph unicode="'" horiz-adv-x="524" d="M6 1556q0 31 12 66q16 94 72.5 167t140.5 103q61 6 110.5 -29.5t74.5 -90.5q16 -45 22 -90.5t6 -102.5q0 -125 -42 -251t-113 -241q-68 -76 -113 -102.5t-88 -26.5q-16 0 -25 3q-14 23 -14 47q0 33 41 96t49 94q4 29 4 39q0 51 -68.5 159.5t-68.5 159.5z" />
<glyph unicode="(" horiz-adv-x="862" d="M39 815q0 254 73.5 476t233.5 399q55 47 127 79.5t139 32.5q45 0 84 -16t72 -53q55 -68 55 -154q0 -49 -28.5 -99t-181 -182.5t-162.5 -248.5q-14 -78 -21.5 -150t-7.5 -139q0 -125 26.5 -228.5t90.5 -189.5q160 -145 208 -196.5t68 -141.5v-24q0 -49 -19.5 -91.5 t-54.5 -85.5q-43 -25 -79.5 -37t-79.5 -12q-41 0 -82 15q-201 133 -310.5 354t-130 405.5t-20.5 286.5z" />
<glyph unicode=")" horiz-adv-x="864" d="M39 -39q0 117 152.5 249t177.5 179q35 100 56 214t21 220q0 133 -32.5 243t-108.5 200q-94 80 -158.5 138t-77 106.5t-12.5 66.5q0 41 15.5 71.5t52.5 84.5q72 70 180 69q154 0 245 -112.5t185 -311.5q43 -131 66.5 -283.5t23.5 -293.5q0 -305 -101 -566.5t-314 -437.5 q-80 -43 -154 -43t-131 43q-35 35 -57.5 76t-28.5 88z" />
<glyph unicode="," horiz-adv-x="577" d="M72 256q0 43 13 85t44 81q45 72 141 72q87 -1 146 -54q78 -123 78 -286q0 -106 -30 -205t-89 -185q-70 -86 -122 -132t-120 -46q-12 0 -37 4q-18 25 -18 48q0 27 40 79t46 78.5t6 52.5q0 70 -49 205t-49 203z" />
<glyph unicode="-" d="M39 590q29 135 50.5 196.5t84.5 100.5q96 0 353.5 -4t275.5 -4q29 -35 28 -80q0 -45 -35.5 -130t-37.5 -98q-31 -25 -125 -39t-209 -14q-129 0 -240.5 19.5t-144.5 52.5z" />
<glyph unicode="." horiz-adv-x="579" d="M27 100q0 115 51 216.5t143 181.5q33 20 68 20q41 0 85 -25.5t91 -97.5q41 -70 63.5 -137.5t22.5 -142.5q0 -72 -27 -133q-33 -61 -94 -81t-164 -28q-78 0 -135 23.5t-88 85.5q-8 25 -12 57.5t-4 60.5z" />
<glyph unicode="0" horiz-adv-x="1024" d="M47 713q0 188 51.5 382.5t113.5 326.5t134 170t154 38q55 0 102 -16t86 -53q133 -166 211 -395.5t78 -460.5q0 -152 -34 -290.5t-103 -258.5q-70 -84 -168.5 -121t-218.5 -37q-135 0 -222.5 115.5t-125 233.5t-48 202t-10.5 164zM397 1212q0 -70 18.5 -129t86.5 -59 q33 0 62.5 15.5t39.5 39.5q12 43 12 95q0 33 -4 65.5t-15 102t-32.5 98t-50.5 28.5q-55 0 -92 -102q-25 -74 -25 -154z" />
<glyph unicode="1" horiz-adv-x="854" d="M39 324q0 123 78 280q74 135 150.5 282.5t76.5 266.5q0 74 -23.5 139.5t-62.5 116.5t-48 68.5t-9 35.5q0 12 6 23q47 53 121.5 81t226.5 28q51 -23 104 -43q60 -31 74 -82q-4 -35 -60.5 -243t-56.5 -298q12 -129 35 -215t96.5 -303t73.5 -242q0 -100 -88 -172 q-141 -74 -342 -74q-94 0 -161.5 19.5t-106.5 66.5q-45 66 -64.5 132.5t-19.5 132.5z" />
<glyph unicode="2" horiz-adv-x="940" d="M43 524v89t2 89q-2 14 -2 43q0 190 178 349t264 236t86 91q0 37 -30.5 47.5t-53.5 10.5q-39 0 -66.5 -17.5t-27.5 -48.5q4 -49 -19.5 -77.5t-66.5 -39.5q-47 0 -83 20.5t-43 53.5t-7 53q0 35 14.5 65t42.5 60q45 41 113 61.5t139 20.5q66 0 121 -14q59 -25 121 -49 q63 -35 90 -94q12 -29 12 -60q0 -68 -36 -115q-39 -41 -155 -122.5t-145.5 -107.5t-29.5 -62q0 -49 65 -50q25 0 48.5 9.5t69.5 35t75 25.5q33 0 61 -27q68 -78 91.5 -189.5t23.5 -254.5q0 -39 -1 -90t-3 -115q0 -92 -50 -180t-134 -135q-55 -20 -128 -34.5t-143 -14.5 q-78 0 -139 15t-111 52q-86 82 -114.5 198t-28.5 273z" />
<glyph unicode="3" horiz-adv-x="970" d="M43 408q0 123 37 287.5t72 314.5q8 16 21 27.5t28 9.5q45 4 112.5 -61.5t92.5 -65.5q23 0 46 11t33.5 33.5t10.5 49.5q0 35 -12.5 55.5t-30 27.5t-41.5 7h-35q-27 0 -42.5 7t-21.5 34q-2 33 13.5 63.5t42.5 40.5q72 0 108.5 10.5t43.5 40t7 37.5q0 66 -45 86.5t-67 20.5 q-80 0 -107 -78q0 -23 -18.5 -41t-44.5 -27q-43 0 -80 19.5t-47 56.5q-8 18 -8 43q0 45 30.5 85t77.5 67q49 33 106.5 48t123.5 15q70 0 124 -14q74 -29 130 -70t79 -100q12 -29 13 -55q0 -31 -12.5 -67t-22.5 -69q-53 -27 -75.5 -56.5t-22.5 -59.5q0 -53 88 -146.5 t132 -190.5t44 -294q0 -98 -26 -188.5t-79 -157.5q-74 -111 -191.5 -138.5t-307.5 -27.5q-66 0 -122.5 27.5t-88.5 80.5q-33 66 -50.5 145t-17.5 157z" />
<glyph unicode="4" horiz-adv-x="1067" d="M49 991q0 121 39 195t106.5 187.5t158.5 177t159 73.5t84 11t27 1q223 0 362 -145q8 -14 8 -31q0 -29 -46 -75t-56 -64q-16 -43 -31.5 -91t-15.5 -89q0 -27 6 -56q66 -14 105.5 -25t56.5 -63q6 -31 6 -61q0 -59 -25 -107q-16 -8 -37 -8q-16 0 -32.5 2t-32.5 4 q-37 0 -44 -25.5t-7 -49.5q0 -92 76.5 -268.5t76.5 -254.5q0 -59 -26.5 -111t-89.5 -102q-102 -45 -222 -45q-98 0 -192 26t-180 73q-31 20 -44.5 57t-13.5 86q0 23 1 37t7 53q25 90 130.5 232.5t132.5 209.5q8 33 8 54q0 27 -10.5 44t-81 21t-183.5 13q-127 23 -180 114z M342 1200q14 -45 59 -63.5t117 -28.5q10 31 16.5 93.5t10.5 86.5q0 51 -51 51q-25 0 -50 -10q-61 -29 -81.5 -58.5t-20.5 -70.5z" />
<glyph unicode="5" horiz-adv-x="1007" d="M47 1499q-6 41 17.5 62.5t68.5 40.5q72 14 141.5 21t157.5 7q127 0 243.5 -15t235.5 -48q27 -6 38.5 -26.5t11.5 -49.5q0 -31 -5.5 -58.5t-9.5 -54.5q-6 -10 -27.5 -78.5t-82.5 -74.5q-45 0 -79 13t-57 48q0 43 -14 76t-53 43q-25 0 -53.5 2t-57.5 4q-45 0 -72.5 -10 t-46.5 -41q-4 -18 -8 -41t-4 -39q0 -33 11.5 -53.5t43.5 -30.5q135 0 250 -56.5t174 -172.5q31 -92 49.5 -197.5t18.5 -212.5q0 -127 -25.5 -231.5t-87.5 -190.5q-61 -74 -151 -108.5t-193 -34.5q-51 0 -79.5 3t-90.5 17q-68 29 -117 72t-67 104q-10 45 -14 93.5t-4 97.5 q0 82 20.5 267t20.5 253q6 23 24.5 32t44.5 9h23q43 -59 76.5 -90t84.5 -31t89 15.5t51.5 49.5t13.5 54q0 41 -25.5 72.5t-54 44t-53.5 16.5t-43 4q-86 0 -154 -61q-35 -4 -49 29.5t-26 64.5q-25 98 -50.5 204.5t-54.5 186.5z" />
<glyph unicode="6" horiz-adv-x="968" d="M43 647q0 145 26.5 286.5t88 290t161 267.5t256.5 139q68 0 117 -14t90 -53q92 -88 92 -207q0 -51 -32.5 -111.5t-114.5 -60.5q-33 0 -58.5 17.5t-25.5 49.5q0 23 5 60t5 41q0 33 -10 48t-33 27q-45 6 -71.5 -20.5t-53 -69.5t-39 -90t-12.5 -90q0 -74 41 -67q37 4 55 4 q111 0 206 -53.5t125 -139.5t48.5 -175t18.5 -177q0 -117 -32 -220.5t-89 -187.5t-142 -115.5t-180 -31.5q-121 0 -202 47q-129 90 -184.5 249t-55.5 357zM444 825q6 -37 35 -59.5t68 -22.5q27 -2 41 -2q37 0 55.5 8.5t18.5 34.5q0 10 -14.5 40t-54.5 59.5t-85 29.5 q-31 0 -45 -24.5t-19 -63.5z" />
<glyph unicode="7" horiz-adv-x="882" d="M37 350q0 133 106.5 288t202.5 294q68 127 97.5 201.5t29.5 166.5q0 25 -5 43.5t-25.5 30.5t-45.5 12q-29 0 -48 -12t-82.5 -76.5t-104.5 -64.5q-6 0 -25.5 6t-30 29.5t-10.5 58.5q0 37 10 72q47 129 71 174t99 61q45 0 127 2t119 2q76 0 119 -4t113 -24q41 -20 68.5 -48 t27.5 -59q0 -20 -44 -71.5t-75 -145.5t-31 -201q0 -121 71 -402.5t71 -387.5q0 -49 -8.5 -104.5t-54.5 -109.5t-97 -65.5t-107.5 -17.5t-103.5 -6q-129 0 -228.5 40t-158.5 138q-47 92 -47 180z" />
<glyph unicode="8" horiz-adv-x="997" d="M47 412q0 139 82 305t137.5 273.5t55.5 125.5q0 23 -34 75t-53.5 83t-36 76t-16.5 82q0 53 32 101t104.5 75.5t162.5 27.5q86 0 165 -22.5t147 -71.5q18 -14 34.5 -56t16.5 -89q0 -82 -43 -124t-78 -77t-35 -70q0 -29 66.5 -111.5t132 -228t65.5 -294.5q0 -66 -8 -113 t-35 -111q-37 -104 -123 -182t-161.5 -84t-100 -7t-41.5 -1q-135 0 -230 43t-136 124t-55.5 141t-14.5 110zM434 868q0 -25 21 -43q29 -18 69 -18q29 0 49.5 11t30.5 40q4 27 -1 48.5t-25.5 65.5t-55.5 44q-34 0 -67 -70q-8 -25 -14.5 -43t-6.5 -35zM449 1360q0 -10 4 -31 q31 -102 77 -102q31 0 51.5 39t20.5 100q-4 33 -27.5 56.5t-54.5 23.5q-8 0 -24 -4q-23 -6 -35 -29.5t-12 -52.5z" />
<glyph unicode="9" horiz-adv-x="950" d="M43 668q0 92 10 174t26.5 130t36 58t42.5 10q27 0 49 -14q31 -43 76 -65.5t94 -22.5q37 0 74 16q35 20 51 45t16 48q0 20 -14 36q-10 4 -160.5 37t-184.5 63.5t-47.5 64.5t-13.5 75q0 16 3 37.5t12.5 59.5t46.5 91.5t92 77.5q74 41 160 41q111 0 211 -64.5t159 -170.5 q61 -127 92 -277.5t31 -310.5q0 -193 -42 -363t-130 -309q-49 -68 -122.5 -102.5t-157.5 -34.5q-37 0 -55.5 2t-98.5 26.5t-149.5 135t-84 213t-18.5 166t-4 127.5zM309 1354q20 -51 82 -72q55 -12 113 -22q16 14 16 49q-2 35 -2 51q-4 43 -37 61.5t-80 18.5 q-41 -8 -66.5 -27.5t-25.5 -58.5z" />
<glyph unicode=":" horiz-adv-x="579" d="M27 100q0 115 51 216.5t143 181.5q33 20 68 20q41 0 85 -25.5t91 -97.5q41 -70 63.5 -137.5t22.5 -142.5q0 -72 -27 -133q-33 -61 -94 -81t-164 -28q-78 0 -135 23.5t-88 85.5q-8 25 -12 57.5t-4 60.5zM27 973q0 25 2 39q49 154 94 239.5t143 132.5q23 6 43 7 q49 0 96 -33t70 -84q33 -76 55.5 -149.5t22.5 -141.5q0 -53 -13.5 -92t-47.5 -78q-100 -72 -242 -72q-88 0 -139 37q-84 78 -84 195z" />
<glyph unicode=";" horiz-adv-x="577" d="M27 969q0 23 2 35q51 156 98 244.5t145 127.5h25q61 0 107 -25.5t71 -76.5q76 -129 76 -281q0 -70 -19 -131q-23 -39 -62.5 -70.5t-90.5 -44t-107 -12.5q-94 0 -153 39q-92 74 -92 195zM72 256q0 43 13 85t44 81q45 72 141 72q87 -1 146 -54q78 -123 78 -286 q0 -106 -30 -205t-89 -185q-70 -86 -122 -132t-120 -46q-12 0 -37 4q-18 25 -18 48q0 27 40 79t46 78.5t6 52.5q0 70 -49 205t-49 203z" />
<glyph unicode="?" horiz-adv-x="1028" d="M43 319q0 92 20.5 181.5t57.5 180.5t113.5 113.5t222.5 36.5q102 0 168.5 -16t89.5 -86q0 -102 109.5 -280.5t109.5 -258.5q0 -55 -25.5 -101t-91.5 -95q-147 -80 -348 -80q-96 0 -179 23.5t-139.5 77t-82 131t-25.5 173.5zM133 1403q0 25 7 49.5t24 48.5q68 66 170 94.5 t221 28.5q45 0 92 -3t121 -12.5t129 -40t82 -87.5q2 -10 2 -31q0 -106 -134 -207.5t-154.5 -129.5t-20.5 -54q0 -20 2 -41t4 -41q0 -31 -14.5 -51.5t-57.5 -26.5q-76 -20 -147 -20q-76 0 -135.5 21.5t-100.5 74.5q-10 111 139.5 205t176.5 159q10 37 -16.5 64t-61.5 37 q-31 8 -57.5 -17.5t-32.5 -56.5q2 -10 2 -31q0 -41 -15.5 -59.5t-40.5 -24.5q-119 -10 -151.5 55.5t-32.5 96.5z" />
<glyph unicode="A" horiz-adv-x="1415" d="M66 289q0 129 66.5 274.5t135 294t68.5 272.5q0 68 -10.5 112t-49 129t-38.5 122q0 27 12 57q43 51 113.5 68.5t164.5 17.5h78q61 0 120.5 2t119.5 4q96 0 162.5 -9t138.5 -42q43 -41 43 -92q0 -37 -36 -111.5t-40 -109.5q-18 -78 -18 -143q0 -127 63.5 -275.5 t124.5 -286.5q66 -168 66 -317q0 -84 -25 -135t-82 -74.5t-123.5 -38t-126.5 -14.5q-63 0 -109 13t-82 54t-55.5 106.5t-19.5 139.5q0 90 41 305t41 287q0 57 -22.5 102.5t-71.5 49.5q-47 0 -79 -19.5t-37 -54.5t-6 -53.5t-1 -30.5q0 -98 42 -285.5t42 -273.5 q0 -72 -13.5 -129.5t-43 -115.5t-99 -80.5t-153.5 -22.5q-47 0 -91.5 7t-79 25.5t-64.5 52t-52 85.5q-14 66 -14 133zM629 1305q14 -8 30 -9q14 0 40 5.5t32 5.5q27 0 41 -13q18 6 19 35v51q-21 60 -76 60h-10q-43 -12 -59.5 -48t-16.5 -87z" />
<glyph unicode="B" horiz-adv-x="1173" d="M53 201q0 129 59.5 284.5t119 313t59.5 301.5q-18 117 -46 203t-83 163q-2 8 -2 16.5v12.5q0 84 69 111q112 32 262 32h9q168 0 291.5 -45t148.5 -141q8 -27 8 -57q0 -59 -19.5 -97t-74.5 -116q123 -174 170 -267.5t71.5 -190.5t24.5 -183q0 -127 -47 -240t-131 -183.5 t-207 -101t-252 -30.5q-92 0 -172 14t-129 42t-84 66.5t-45 92.5zM573.5 1347q20.5 -40 20.5 -57q29 10 46 41t17 68q-9 23 -33 38q-16 10 -32 10q-9 0 -17 -3q-22 -13 -22 -37q0 -20 20.5 -60zM575 858q0 -16 11.5 -25.5t29.5 -9.5q12 0 37 8.5t42.5 44t17.5 87.5 q0 29 -3 50t-27 40.5t-52 19.5q-21 0 -37 -8z" />
<glyph unicode="C" horiz-adv-x="987" d="M45 717q0 219 60.5 420.5t177.5 361.5q53 66 134 103.5t167 37.5q137 0 225 -88q33 -39 45 -91t12 -120q-10 -37 -36.5 -61.5t-50 -34.5t-40.5 -10q-43 0 -72.5 17.5t-37.5 56.5v24q0 47 -10.5 79t-45.5 46q-43 0 -73.5 -31.5t-38.5 -76.5q-10 -39 -18.5 -85t-8.5 -87 t9.5 -80t27.5 -72q31 -41 72 -66.5t84 -25.5q25 0 55 10q20 10 53 56.5t64 46.5q18 0 37 -9q51 -100 79.5 -220t28.5 -245q0 -135 -38 -259t-100.5 -197.5t-126 -101t-140.5 -27.5q-23 2 -35 2h-19q-123 0 -218 73.5t-158.5 240.5t-63.5 413z" />
<glyph unicode="D" horiz-adv-x="1079" d="M43 246q0 14 47 155.5t86 284.5t39 299q0 121 -31.5 226.5t-81 167t-49.5 102.5q0 37 22.5 70.5t113 61t225.5 27.5q139 0 246.5 -46.5t173.5 -155.5q198 -334 198 -697q0 -291 -131 -528q-70 -98 -188.5 -155.5t-255.5 -57.5q-47 0 -97 6q-96 0 -178 40t-110.5 101.5 t-28.5 98.5zM489 1370q0 -137 5.5 -233.5t27.5 -192.5q11 -4 20 -4q16 0 30 10q22 16 41.5 45t27.5 66t8 80q0 47 -7 85t-17 68q-23 41 -45.5 65.5t-51.5 24.5q-19 0 -39 -14z" />
<glyph unicode="E" horiz-adv-x="997" d="M45 244q0 125 50 267t101.5 287.5t51.5 260.5q0 57 -8.5 103t-32.5 108q-29 53 -58.5 114.5t-29.5 114.5q0 25 6 49q49 57 121.5 78t171.5 21q70 0 129 -4.5t145 -8.5q29 -2 41 -11t35 -34q35 -39 56.5 -86t21.5 -90t-21 -78q-20 -20 -53 -20t-63 24q-31 31 -60 64 q-43 39 -78 39q-16 0 -38.5 -11.5t-22.5 -41.5q0 -29 13.5 -41.5t91 -26.5t77.5 -61q2 -31 2 -48q0 -27 -4 -45t-35 -24q-10 2 -30 2q-35 0 -59.5 -11.5t-37 -33t-12.5 -41.5q0 -68 36 -74t52 -6q43 0 102.5 71.5t81.5 71.5q20 0 59.5 -21.5t57.5 -103.5q18 -131 39 -260 v-96t2 -98q0 -229 -22.5 -324.5t-68.5 -140.5t-132 -66.5t-195 -21.5q-106 0 -207.5 19.5t-156.5 52t-87 75.5t-32 107z" />
<glyph unicode="F" horiz-adv-x="960" d="M45 295q0 125 60.5 272.5t123 298t62.5 273.5q-45 162 -88 325q0 45 19.5 80t51 52.5t93 25.5t143.5 8q113 0 205 -20.5t137 -71.5q12 -14 37.5 -68.5t25.5 -115.5q0 -33 -8 -58q-19 -28 -60 -28h-3q-20 0 -37 6q-18 12 -73.5 76.5t-94.5 64.5q-12 0 -30.5 -8 t-23.5 -17.5t-7 -21.5q10 -47 91 -62.5t81 -76.5q0 -51 -6.5 -71.5t-38.5 -37.5q-53 0 -87 -15t-40 -61q0 -119 64.5 -254t130 -268t65.5 -248q0 -68 -21 -135q-55 -78 -143 -109.5t-201 -31.5q-51 0 -112.5 6t-94.5 8q-70 20 -124 53t-79 87q-18 74 -18 143z" />
<glyph unicode="G" horiz-adv-x="1015" d="M47 727q0 367 131 659q119 225 357 261q70 0 137 -22t114 -69q31 -27 46.5 -70.5t15.5 -88.5q0 -31 -4 -47.5t-8.5 -36t-44 -41t-86.5 -21.5q-45 0 -74 19.5t-29 62.5v31q0 29 -6 43t-25.5 19.5t-23.5 5.5q-33 0 -56.5 -29t-42 -72t-29.5 -93t-11 -97q0 -63 19 -104.5 t53 -66t73 -24.5q20 0 40.5 14.5t31.5 34.5q8 23 -5.5 43.5t-35.5 32.5h-31q-31 0 -37 19v26q0 31 9.5 54.5t31.5 35.5q25 0 79 2t81 2q70 0 120 -7t93 -29q6 -53 6 -107q0 -59 -7 -164.5t-7 -136.5q16 -178 33.5 -380t17.5 -273q0 -25 -7.5 -49.5t-62.5 -32.5q-49 0 -82 26 q-33 35 -49 52q-70 -57 -145.5 -88t-169.5 -31q-115 0 -201 63.5t-131 171.5q-39 115 -58.5 239t-19.5 263z" />
<glyph unicode="H" horiz-adv-x="1400" d="M61 305q0 102 84 338t84 404q0 84 -58 263t-58 203q0 47 30.5 78t98 43.5t137.5 12.5q135 -1 205 -52q18 -25 18 -63q0 -23 -13.5 -80t-13.5 -74q0 -31 15.5 -48t60.5 -27q12 0 43 -2.5t47 -2.5q47 0 73 12.5t26 47.5q0 20 -10.5 75.5t-10.5 86.5q0 41 14.5 67.5 t53.5 40.5q35 6 73.5 10t77.5 4q72 0 125.5 -16t81 -55t27.5 -78q0 -37 -56.5 -171t-56.5 -249q0 -141 89 -447.5t89 -365.5q0 -53 -8 -88t-40 -82t-90 -69.5t-136 -22.5q-31 0 -70 3t-82 7t-81.5 39t-69.5 94q-31 92 -31 203q0 86 39 294t39 290q0 84 -19.5 151.5 t-76.5 67.5q-84 0 -119 -68q-12 -66 -12 -125q0 -100 48 -317t48 -293q0 -59 -10.5 -115.5t-39 -121t-91 -87t-162.5 -22.5q-115 0 -184.5 31.5t-98.5 114.5t-29 161z" />
<glyph unicode="I" horiz-adv-x="757" d="M35 319q0 137 96 385t96 375q0 45 -8 92.5t-22.5 85t-51 111.5t-36.5 123q0 37 21.5 80t94 67.5t170.5 24.5q94 0 170 -18.5t90 -45.5t22.5 -59.5t8.5 -56.5q0 -68 -70.5 -213.5t-70.5 -204.5q0 -31 8 -60.5t91 -273.5t83 -391q0 -109 -39 -217q-35 -66 -105.5 -97.5 t-160.5 -31.5q-125 0 -234.5 54t-138.5 138q-14 63 -14 133z" />
<glyph unicode="J" horiz-adv-x="942" d="M39 592q0 109 19.5 213t56.5 209q23 43 69 43q18 0 43 -10q47 -49 80 -80t64 -31q23 0 41 10q39 35 55 78t16 90q0 61 -35.5 194.5t-35.5 172.5q-4 25 -4 35q0 37 16 66.5t47 47.5q35 8 87 15.5t95 7.5q84 0 143.5 -25.5t88.5 -91.5q2 -14 2 -43q0 -70 -69.5 -228.5 t-69.5 -234.5q0 -29 4 -74t58 -223t71.5 -244.5t17.5 -156.5q0 -106 -44 -186t-155 -140q-90 -43 -211 -43q-80 0 -149.5 21.5t-139 97.5t-115.5 213t-46 297z" />
<glyph unicode="K" horiz-adv-x="1222" d="M55 205q0 137 102.5 411.5t102.5 391.5q2 25 2 36q0 82 -62.5 255.5t-62.5 240.5q0 29 2 43q74 86 213 86q115 0 193 -59q45 -45 45 -103q0 -39 -31 -116.5t-31 -116.5q0 -23 2 -33t12.5 -27.5t35.5 -17.5h14l24 8q33 27 44.5 64t11.5 84q0 33 -2 66.5t-4 66.5 q0 59 21.5 96t86.5 55q27 14 58.5 21.5t72.5 7.5q98 0 166 -49q41 -35 41 -103q0 -45 -28.5 -92t-164 -140t-171.5 -165q18 -66 138 -204t158.5 -196.5t80.5 -180t42 -242.5q0 -123 -33.5 -193.5t-88 -95t-121.5 -24.5q-72 0 -131.5 28.5t-94.5 93.5q-18 45 -26 98.5 t-8 104.5q0 47 11 166t11 160q0 45 -14.5 144t-28.5 134t-53 39q-49 -20 -70.5 -64t-21.5 -104q0 -45 4 -75.5t17 -82t46 -171t33 -201.5q0 -100 -49 -182q-43 -43 -101.5 -67t-119.5 -24q-72 0 -152 27q-55 27 -75.5 70t-45.5 131z" />
<glyph unicode="L" horiz-adv-x="983" d="M47 268q0 127 88 411t88 404q0 66 -77.5 209.5t-77.5 206.5q0 47 28.5 85t93.5 67q57 14 109.5 22t106.5 8q61 0 113 -13t104 -44q18 -16 19 -29.5t-1 -25.5q-10 -41 -57 -152.5t-54.5 -136.5t-11.5 -51.5t-4 -57.5q0 -51 15.5 -89t58.5 -81q8 -1 15 -1q35 0 53 32 q22 39 40.5 72t51.5 33q25 0 51 -17q98 -100 119 -299q10 -174 20 -346q0 -233 -61.5 -338.5t-167.5 -142.5q-49 0 -156 -8.5t-158 -8.5q-123 0 -207 37t-133 142q-8 51 -8 112z" />
<glyph unicode="M" horiz-adv-x="1462" d="M55 233q0 59 11.5 126t48.5 224.5t106 442.5q0 39 -4 70.5t-15.5 69.5t-65.5 155t-54 180q0 37 8 62.5t35 60.5q76 63 199 64q98 0 185 -42t132 -122q8 -14 21.5 -49t29.5 -68q39 88 116 155.5t173 96.5q35 6 53.5 8t59.5 2q74 0 132 -24.5t91 -83.5q0 -84 -75 -254 t-75 -244q0 -31 58.5 -227.5t169.5 -556.5q0 -92 -40 -168t-141 -140q-35 -8 -73.5 -14t-85.5 -6q-90 0 -164 31.5t-113 105.5q-30 79 -30 166v6q0 94 87 329.5t87 344.5q0 80 -27 160q-12 27 -39 26q-14 0 -29 -10q-12 -23 -18 -59.5t-6 -69.5t6 -102.5t6 -102.5 q0 -80 -40 -129t-93 -49q-47 0 -82 46t-35 132q0 23 7.5 90.5t7.5 98.5q0 47 -15.5 97t-46.5 50q-18 0 -34.5 -24.5t-20.5 -46t-4 -46.5q0 -27 6 -78t6 -71q94 -303 188 -604q0 -76 -32.5 -141.5t-110.5 -123.5q-39 -6 -82 -10t-84 -4q-49 0 -94 6t-86 25q-61 33 -88 96.5 t-27 142.5z" />
<glyph unicode="N" horiz-adv-x="1325" d="M61 240.5v29.5q0 119 90.5 394.5t90.5 390.5q0 70 -19.5 139.5t-62.5 138.5q-31 70 -43.5 103.5t-12.5 76.5q0 37 15 68q43 47 108.5 71.5t139.5 24.5q68 0 122 -19.5t97 -62.5q84 -145 145.5 -369.5t92 -338t48.5 -113.5q10 0 11 19q0 170 -38 336.5t-75 266t-37 113.5 q0 45 34 86t82 50.5t84 14.5t79 5q66 0 119 -19.5t90 -68.5q8 -27 8 -61q0 -57 -69.5 -212t-69.5 -227q0 -27 2 -41q0 -129 86 -407.5t86 -384.5q0 -49 -6.5 -94.5t-22.5 -94.5q-35 -43 -86 -63.5t-111 -20.5q-39 0 -68.5 4.5t-113.5 22.5q-63 39 -94 123q-27 102 -41 149 q-37 193 -77 395.5t-99 362.5q-6 8 -12.5 14.5t-14.5 4.5q-49 -31 -49 -115q0 -23 4 -48.5t51 -183t135 -446.5q0 -78 -32.5 -144.5t-108.5 -121.5q-61 -12 -94 -15.5t-82 -3.5q-88 0 -147 29q-55 23 -81 71t-51 134q-2 18 -2 37.5z" />
<glyph unicode="O" horiz-adv-x="1058" d="M49 664q0 80 7 171t32 255q84 283 147.5 406.5t162 140t124 18.5t47.5 2q59 0 104.5 -17.5t86.5 -62.5q119 -133 180 -341t61 -640v-199q-18 -139 -80.5 -250.5t-175.5 -166.5q-98 -41 -217 -41q-82 0 -143 17t-145 94t-137.5 245t-53.5 369zM422 1096q0 -31 29.5 -48.5 t72.5 -17.5q41 0 71 17.5t30 48.5v84q0 45 -3.5 73.5t-15.5 70.5t-28.5 68.5t-53.5 26.5t-59.5 -33.5t-30.5 -66.5t-10 -72t-2 -59v-92z" />
<glyph unicode="P" horiz-adv-x="933" d="M43 1479q0 49 25.5 83.5t72.5 59.5q111 23 184.5 34t157.5 11q133 0 232.5 -43t154.5 -149q20 -47 21 -99q0 -57 -23.5 -112.5t-58.5 -95.5t-170 -126t-154 -184q0 -133 129 -346t129 -328q0 -55 -20 -110q-49 -57 -128 -84t-177 -27q-63 0 -131 11.5t-123 30t-86 62.5 t-31 97q0 117 31 269.5t62.5 312t31.5 278.5t-28.5 222.5t-96.5 195.5q-4 25 -4 37zM429 1302q11 -51 11 -71q0 -12 -2 -19h15q37 25 57 66t20 82q0 16 -3 31.5t-22.5 37t-60.5 21.5q-26 -28 -26 -69q0 -28 11 -79z" />
<glyph unicode="Q" horiz-adv-x="1118" d="M51 741q0 201 54.5 403t122 318.5t143 161.5t155.5 45q55 0 104.5 -21.5t88.5 -64.5q131 -180 201.5 -409.5t70.5 -471.5q0 -250 -76 -475q-51 -80 -100 -159q0 -12 6 -25q27 -33 125 -46t109.5 -52t11.5 -56q0 -39 -30.5 -71.5t-73.5 -53.5q-25 -6 -45 -6 q-90 0 -151.5 58.5t-148.5 177.5q-45 -14 -98 -14q-78 0 -146.5 33.5t-127.5 97.5q-98 121 -146.5 286.5t-48.5 343.5zM410 1223q0 -55 10 -98.5t37 -82.5q27 27 68.5 34t92.5 7q12 12 16.5 39t4.5 64q0 53 -6 98t-15 78q-6 45 -29.5 70.5t-56.5 25.5q-75 0 -108 -119 q-14 -51 -14 -116z" />
<glyph unicode="R" horiz-adv-x="1193" d="M55 244q0 37 4 82t9 84q61 166 98 317.5t37 294.5q0 129 -33 236.5t-111 199.5q-2 6 -2 13.5v9.5q0 37 24.5 60.5t76.5 55.5q78 25 155.5 38.5t161.5 13.5q129 0 230.5 -42.5t154.5 -138.5q8 -27 8 -61q0 -70 -29.5 -121t-103.5 -147q104 -123 211 -244 q86 -135 139.5 -285.5t53.5 -302.5q0 -80 -15.5 -151.5t-48.5 -141.5q-31 -39 -70.5 -54t-93.5 -15q-29 0 -91 10t-113.5 100t-70 172t-20.5 116t-2 65q0 49 7.5 147t7.5 131q0 61 -5.5 96t-23.5 86q-14 25 -45 25q-16 0 -26.5 -15.5t-10.5 -52.5q-6 -35 -6 -67 q0 -63 23.5 -187.5t27.5 -150.5q23 -78 23 -187q0 -84 -15.5 -146t-85 -102t-176.5 -40q-76 0 -139.5 36.5t-89 103.5t-25.5 159zM420 1417l41 -229q10 -8 20 -8q12 0 28.5 17t22.5 24q29 61 33 74.5t4 41.5q0 18 -6 43t-31.5 41.5t-56.5 16.5q-30 -1 -55 -21z" />
<glyph unicode="S" horiz-adv-x="966" d="M49 584q0 143 16.5 221t45.5 135q16 8 36 8q23 0 81.5 -23.5t76.5 -23.5q23 0 41.5 11.5t34.5 41.5q-12 86 -132 200t-120 214v25q0 63 39 117.5t104 95.5q92 41 203 41q102 0 185.5 -39t130.5 -119q18 -35 18 -72q0 -31 -9 -56.5t-37 -64.5t-97 -39q-37 0 -70 17 q-20 18 -46 119.5t-87 101.5q-14 0 -37 -6q-37 -14 -60.5 -46t-23.5 -67q0 -20 14.5 -40.5t231.5 -150.5t258 -237q78 -147 78 -344q0 -139 -37 -265t-109 -228q-59 -63 -143 -97t-174 -34q-80 0 -148 20q-104 41 -168.5 137t-91.5 217q0 31 -2 109t-2 121z" />
<glyph unicode="T" horiz-adv-x="831" d="M41 1364q0 94 21.5 162.5t82.5 107.5q16 8 99.5 12.5t169.5 4.5q111 0 178 -2t102 -9q61 -39 83 -108.5t22 -167.5q0 -27 -2 -80t-2 -76q-16 -70 -95 -82q-51 20 -69 84q-15 80 -21 119q-6 27 -16 48.5t-31 39.5q-14 8 -27.5 -4t-17.5 -29q0 -147 55.5 -324t110.5 -353.5 t55 -323.5q0 -133 -32.5 -225t-128.5 -146q-70 -43 -168 -43q-66 0 -128.5 15.5t-123.5 46.5q-66 41 -90.5 106.5t-24.5 155.5q0 59 8 125.5t12 99.5q16 63 131 347t115 450q-2 25 -2 37v24q0 14 -14 26.5t-35 4.5q-18 -29 -35 -144.5t-84 -142.5q-78 12 -94 82q0 23 -2 77 t-2 85z" />
<glyph unicode="U" horiz-adv-x="1122" d="M51 1509q0 29 3 42.5t14 35.5q29 39 78 57.5t106 18.5q63 0 115.5 -16.5t87.5 -47.5q27 -35 40 -75.5t13 -81.5q0 -49 -27.5 -166t-27.5 -162q0 -41 8 -74q10 -20 38.5 -32.5t61.5 -12.5q49 0 84 19.5t42 54.5t7 64q0 53 -33.5 188t-33.5 170q0 76 50 117t175 41 q119 0 165 -40t46 -114q0 -55 -29.5 -138t-64.5 -175q-23 -74 -23 -170q0 -106 41 -325.5t41 -315.5q0 -152 -72.5 -247t-257.5 -132h-62.5t-64.5 -2q-195 0 -282.5 41t-138.5 121q-39 72 -54.5 145.5t-15.5 159.5q0 100 38 321t38 303q0 49 -2 76t-13 78z" />
<glyph unicode="V" horiz-adv-x="1265" d="M57 1481q0 68 47 104q86 57 209 57q82 0 146.5 -29t99.5 -95q14 -45 14 -103q0 -53 -20.5 -174t-20.5 -158q0 -45 17.5 -96t42 -76.5t51.5 -25.5t53.5 25.5t46 68.5t19.5 111q0 61 -31 177.5t-31 166.5q0 57 27 102t96 80q76 16 148 16q66 0 120 -15t97 -50 q22 -30 22 -69q0 -36 -14 -76t-27 -76q-98 -197 -154.5 -330t-94 -288t-37.5 -322v-62t8 -88q0 -82 -41 -151.5t-113 -100.5q-41 -27 -94 -27q-82 0 -139 54q-70 57 -94.5 139t-24.5 199q0 29 2 92t2 96q0 55 -2 88t-12 70q-18 127 -62.5 235.5t-149 302t-105.5 200.5t-1 28 z" />
<glyph unicode="W" horiz-adv-x="1341" d="M61 1513q0 23 11 58q43 45 109.5 66.5t142.5 21.5q29 0 63.5 -4t71.5 -10q25 -10 33 -24t12 -28q6 -25 6 -45q0 -31 -14.5 -78t-19.5 -72.5t-7 -50t-2 -36.5q0 -70 29 -70q20 0 41.5 41t21.5 92q0 98 18.5 159.5t58.5 83t56 21.5q27 0 48.5 -17t29.5 -44q4 -74 5 -127 t20.5 -116.5t56.5 -63.5q33 0 33 78q-2 16 -2 24v19q-6 31 -13.5 66.5t-7.5 55.5q0 37 13.5 64t48.5 49q68 25 135 25q76 0 153 -33q27 -27 38.5 -50.5t11.5 -54.5q0 -47 -58.5 -159.5t-60.5 -128.5q-16 -49 -24.5 -106.5t-8.5 -104.5q0 -117 85 -399.5t85 -403.5 q-2 -25 -2 -37v-24q-35 -78 -66.5 -112t-68.5 -42q-66 -25 -129 -25q-94 0 -185 52q-74 57 -104.5 131.5t-30.5 160.5q0 74 25.5 221.5t25.5 213.5q0 109 -27.5 167t-66.5 58q-25 0 -43 -23.5t-22 -57.5t-4 -63q0 -27 6 -86t6 -88q12 -88 19.5 -156.5t7.5 -146.5 q0 -137 -32 -231t-109 -120t-142 -26q-88 0 -151.5 42t-89 95.5t-25.5 116.5q0 125 75.5 406t75.5 387q0 72 -11 128t-40 122q-8 35 -59.5 111.5t-51.5 127.5z" />
<glyph unicode="X" horiz-adv-x="1228" d="M57 254q0 164 54.5 322.5t121 274.5t216.5 345q-29 82 -129.5 164t-217.5 180q-6 29 11.5 54.5t72.5 47.5q25 0 83.5 10.5t78.5 10.5q37 0 59.5 -9t49.5 -38q49 -68 83.5 -112t77.5 -64q66 86 115 143t121 68q78 0 118 -6.5t75.5 -31t35.5 -52.5q0 -25 -21.5 -45.5 t-38.5 -38t-114.5 -96t-136.5 -152.5q129 -193 216 -353.5t145 -340.5q20 -154 43 -308q0 -80 -27 -140t-92 -101q-84 -27 -156 -27q-53 0 -92 11.5t-82 41.5q-33 37 -48 80t-15 88t23.5 157t23.5 159v30q0 195 -23.5 283t-77.5 164q-49 -51 -69.5 -123t-20.5 -160 q0 -51 7.5 -126t15.5 -140q12 -57 25.5 -121.5t13.5 -112.5q0 -41 -6.5 -69.5t-26.5 -61.5q-43 -49 -103.5 -70.5t-140.5 -29.5q-88 10 -148.5 40t-86.5 99q-12 80 -13 156z" />
<glyph unicode="Y" horiz-adv-x="1015" d="M47 1530q0 37 12 78q27 27 63 38t85 11q25 0 53.5 -4t58.5 -11q37 -14 54.5 -28t25.5 -47q4 -37 4 -56q0 -18 -2 -52t-2 -48q0 -82 26 -121t62 -39q45 0 79 46q29 39 29 90q0 9 -1 18q0 20 -1 41.5t-1 42.5q0 59 15.5 94t62.5 51q23 4 64.5 10.5t64.5 6.5q55 0 98 -17.5 t72 -58.5q6 -18 6 -37q0 -63 -135 -241.5t-151.5 -216.5t-16.5 -97q0 -84 70.5 -231.5t76.5 -219.5q8 -43 14.5 -96t6.5 -100q0 -80 -17.5 -143.5t-62.5 -120.5q-49 -51 -120 -76t-146 -25q-86 0 -166 29q-168 84 -203 256q-14 51 -14 104q0 117 107.5 320t107.5 317 q0 33 -7 70q-20 45 -146 202.5t-126 260.5z" />
<glyph unicode="Z" horiz-adv-x="890" d="M41 319q0 154 35 382.5t41 297.5q43 76 197.5 236t160.5 170q2 20 -15.5 38.5t-37.5 22.5q-72 0 -139.5 -100t-122.5 -100q-27 0 -68 18q-25 90 -34 132t-9 95q0 55 17 97q80 27 165.5 40t186.5 13q186 0 350 -53l45 -52q12 -29 12 -53q0 -51 -48 -102t-91 -96 q-23 -31 -105.5 -106t-102 -100.5t-31 -52t-11.5 -51.5q0 -59 56 -59q16 0 33.5 12.5t54 88t77.5 75.5q23 0 54 -18l34 -45q0 -113 52.5 -397.5t52.5 -403.5q0 -84 -14 -162q-37 -72 -109 -109q-25 2 -42 3.5t-30 1.5q-31 0 -132 -7.5t-152 -7.5q-115 0 -192 30t-122 116 q-8 41 -12 97t-4 109z" />
<glyph unicode="a" horiz-adv-x="866" d="M39 334q0 74 16 155q14 158 115.5 290t255.5 184q47 29 47 84q0 20 -13.5 42.5t-47.5 22.5q-14 0 -36 -11t-48.5 -81t-53 -78t-47.5 -8q-33 0 -56.5 13.5t-28.5 36t-7 37.5t-2 28q0 63 40 118.5t123 90t183 34.5q61 0 117 -14q55 -18 93 -41.5t54 -62.5 q0 -59 -36.5 -197.5t-36.5 -188.5q0 -70 44 -158.5t79.5 -196t35.5 -214.5q0 -57 -12 -117q-61 -61 -148 -89.5t-196 -28.5q-72 0 -149.5 14t-141.5 37q-76 45 -109.5 123t-33.5 176zM342 647q0 -25 2 -37q0 -69 66 -69h2q20 33 27 79t7 105v68q0 10 -8 10h-3 q-11 -2 -23 -10q-37 -18 -53.5 -55.5t-16.5 -90.5z" />
<glyph unicode="b" horiz-adv-x="866" d="M41 1528q0 74 70 102q47 6 88 10.5t71 4.5q57 0 90 -11.5t35 -44.5q0 -63 -36.5 -196t-36.5 -183q20 -29 47 -28q25 0 85 33.5t74.5 39t38.5 5.5q41 0 72 -23t72 -129.5t79.5 -279.5t38.5 -343q0 -100 -16 -195t-53 -181q-61 -78 -140 -107t-186 -29q-39 0 -86 4.5 t-102 10.5q-61 12 -115.5 55t-73.5 100q0 129 56.5 415t56.5 400q0 53 -6 113q0 84 -14.5 138.5t-61.5 178t-47 140.5zM414 952q0 -27 5 -72.5t5 -56.5q0 -33 -8 -57q0 -18 14 -28.5t31 -10.5q12 0 22 6q33 35 52.5 72t19.5 80l-4 35q-18 63 -40 90.5t-42 27.5 q-23 0 -39 -29.5t-16 -56.5z" />
<glyph unicode="c" horiz-adv-x="858" d="M41 532q0 51 4 114t10 134q23 143 78 252t160 180q45 25 97 38.5t106 13.5q68 0 115 -25t65 -82q20 -66 20 -110q0 -66 -39 -113q-43 -27 -94 -27q-33 0 -57 13q-14 16 -19.5 88.5t-46.5 72.5q-8 0 -28 -4q-43 -37 -62.5 -95t-19.5 -122q0 -51 30.5 -92t77.5 -55 q27 -14 54 -15q35 0 102.5 41t91.5 41q20 0 39 -8q47 -72 69.5 -159t22.5 -185q0 -186 -82 -319q-49 -72 -128 -104t-177 -32q-74 0 -133 15q-143 78 -199.5 217t-56.5 327z" />
<glyph unicode="d" horiz-adv-x="913" d="M41 557q0 197 34 366t120 302q24 32 72 32h3q31 0 54 -16q47 -41 106 -41q20 0 43 6q25 33 25 78q0 43 -35 129t-35 123q0 35 20.5 59.5t73.5 42.5q47 12 94 13q101 -1 177 -54q8 -4 16 -9t8 -19q0 -8 -26.5 -70.5t-55 -204t-28.5 -276.5q0 -117 19 -220.5t62 -208 t68 -180t25 -149.5q0 -94 -50 -176q-66 -59 -157.5 -89t-192.5 -30q-74 0 -147.5 16.5t-138.5 45.5q-76 63 -115 174.5t-39 355.5zM317 850q0 -33 7 -64q18 -35 38 -54q15 -14 37 -14q7 0 15 1q31 0 46 10q10 7 10 21q0 8 -3 18q-12 20 -12 66q0 16 2 54t2 58 q0 31 -18.5 51.5t-41.5 20.5q-45 0 -65 -68q-8 -27 -12.5 -50t-4.5 -50z" />
<glyph unicode="e" horiz-adv-x="880" d="M39 569q0 164 37 301.5t88 218t133 138.5q78 49 182 49q131 0 211 -72q49 -37 55.5 -97t6.5 -106q-33 -63 -57.5 -87.5t-59.5 -32.5q-27 -25 -86 -25q-25 0 -76 6t-72 6q-37 0 -55 -11t-18 -46q0 -18 10 -53q16 -25 43 -36t57 -11q29 0 50.5 4t46 7t80 62.5t81.5 59.5 q16 0 39 -19q66 -96 84.5 -217t18.5 -295q-23 -211 -211 -303q-79 -28 -174 -28h-7q-61 0 -113 13t-97 42q-100 98 -148.5 236.5t-48.5 295.5zM319 1010h213q16 0 24 16q5 9 5 19q0 7 -2 14q-12 29 -36.5 40t-57.5 11q-18 0 -39 -2t-39 -4q-33 -14 -53 -38q-16 -19 -16 -42 q0 -7 1 -14z" />
<glyph unicode="f" horiz-adv-x="827" d="M37 1116q0 53 6 82t37 43h57q29 0 44.5 7t15.5 32q0 12 -4.5 37.5t-4.5 68.5q0 70 17.5 121.5t64.5 81.5q35 31 81 45.5t98 14.5q61 0 127.5 -19.5t117.5 -50.5q51 -43 72.5 -95t21.5 -124q0 -35 -27.5 -60.5t-66.5 -25.5q-33 0 -61.5 13t-38.5 40q-6 37 -9 61.5 t-32 32.5q-11 3 -20 3q-24 0 -37 -20q-19 -26 -19 -63q-1 -9 -1 -18q0 -27 10 -51q12 -31 38 -31h45q39 0 58.5 -5t34.5 -30q-2 -12 -3 -41q0 -63 -5 -84.5t-42 -38.5q-59 0 -87.5 -7t-39.5 -46q0 -143 110 -453.5t116 -357.5q1 -9 1 -17q0 -57 -35 -110q-40 -61 -110 -78 q-66 -10 -103.5 -14t-84.5 -4q-72 0 -122 14.5t-95 53.5q-39 49 -57.5 107t-18.5 112q0 84 76 300t76 218q0 31 3 80t3 51q0 57 -14.5 95t-57.5 63q-41 4 -88 8t-47 59z" />
<glyph unicode="g" horiz-adv-x="952" d="M43 385q8 78 12 132t17.5 109.5t40 91.5t71.5 36t109 -45q66 -31 121 -31q53 0 104 27q39 35 39 77q0 14 -6 31q-33 8 -76 8q-35 0 -65.5 -5t-62.5 -12t-48 -7q-47 0 -88 31.5t-80 78.5q-27 45 -27 107q0 86 41 145q66 70 164.5 103.5t206.5 33.5q147 0 272 -57 q46 -25 52 -76q0 -68 -42 -179.5t-42 -168.5q0 -43 41 -181t112 -380q0 -61 -21.5 -111.5t-80.5 -99.5q-63 -39 -140 -57.5t-155 -18.5q-70 0 -134.5 11.5t-131.5 35.5q-100 47 -151.5 147.5t-51.5 223.5zM352 1018q12 -12 26.5 -17.5t35.5 -5.5q14 0 29.5 2t31.5 4 q14 0 51 -6t52 -6q28 0 28 18q0 5 -2 11q-12 39 -50 59.5t-85 20.5q-24 0 -49 -6q-27 -6 -48.5 -27t-19.5 -47z" />
<glyph unicode="h" horiz-adv-x="1103" d="M49 137q0 125 51.5 273.5t104.5 300t53 268.5q0 57 -9 109.5t-24.5 91.5t-72 146.5t-56.5 166.5t37 117q25 27 67 40t97 13q70 0 120 -21.5t62 -64.5q2 -10 2 -31q0 -39 -36.5 -129t-36.5 -117q0 -16 8 -51t65 -35q18 0 28.5 3.5t51.5 15.5t86 23.5t84 11.5t73 -12.5 t64 -43.5q10 -18 16.5 -46.5t6.5 -51.5q0 -41 -27.5 -148.5t-27.5 -152.5q0 -29 2 -44t57 -171t158 -434q2 -11 2 -22q0 -46 -33 -94q-41 -58 -104 -68q-16 0 -57.5 -2.5t-63.5 -2.5q-68 0 -112 17.5t-67 68.5q-16 55 -25 125t-9 136q0 80 12 243.5t12 192.5q0 70 -4 113.5 t-17.5 89t-29.5 45.5q-18 0 -35.5 -41t-23.5 -97q0 -57 4 -129.5t10 -150.5q0 -45 10 -157t10 -155q0 -80 -14 -137t-55 -110q-35 -31 -82 -46.5t-100 -15.5t-105.5 14.5t-89.5 58.5t-37 97z" />
<glyph unicode="i" horiz-adv-x="667" d="M29 207q0 92 88 282.5t88 294.5q0 29 -2 43q4 20 4 31q0 51 -49 143.5t-49 131.5q0 33 19 58.5t67 49.5q20 2 74.5 8t74.5 6q63 0 110 -18t76 -63q6 -25 7 -50q0 -51 -45.5 -157.5t-45.5 -165.5q-2 -14 -2 -43q0 -100 95.5 -293t95.5 -275q0 -63 -37 -119.5t-125 -103.5 q-68 -28 -150 -28h-6q-117 0 -194 51q-51 53 -72.5 105t-21.5 112zM156 1473q0 74 48 134t126 60q72 0 133 -44t61 -110q0 -88 -42 -151.5t-109 -63.5q-88 0 -152.5 47.5t-64.5 127.5z" />
<glyph unicode="j" horiz-adv-x="847" d="M39 463q0 51 3 103t14.5 145.5t28.5 144.5t77 84q16 6 28 6q39 0 84 -61.5t82 -61.5q25 0 65 18.5t40 76.5q0 27 -5 47t-19.5 49.5t-28 62.5t-13.5 60q0 29 15 55q66 72 184 72q100 -1 143 -64q12 -23 13 -47q0 -27 -16.5 -70t-35.5 -92q-16 -55 -25 -100t-9 -86 q0 -43 40.5 -192.5t106.5 -387.5q0 -61 -21.5 -114.5t-74.5 -102.5q-51 -39 -118 -56.5t-142 -17.5q-72 0 -115 7q-45 10 -66 14q-133 66 -184 196t-51 312zM432 1483q0 68 46 118t114 50t118 -46t50 -114q0 -70 -46 -118t-114 -48t-118 46t-50 112z" />
<glyph unicode="k" horiz-adv-x="1050" d="M49 199q0 49 8.5 102t17.5 97t74.5 270.5t65.5 384.5q0 84 -14 161q-45 154 -88 310q0 37 15 69.5t50 59.5q45 6 80 10t61 4q63 0 105.5 -18.5t67.5 -69.5q2 -14 2 -39q0 -47 -28 -146.5t-28 -142.5q-6 -49 -6 -102q0 -94 25 -180q41 29 113.5 180t170.5 151q31 0 62 -8 q53 0 87 -11t56 -48q0 -82 -112.5 -153.5t-133.5 -102.5q-27 -25 -41 -46.5t-14 -47.5q0 -12 6 -29q154 -131 253.5 -294t99.5 -337q0 -80 -25 -160q-29 -41 -75 -62t-101 -28q-78 0 -131.5 19.5t-79.5 75.5q-18 55 -25.5 116.5t-7.5 130.5v69t2 69q0 96 -12 160.5 t-57 138.5q-8 8 -19 8q-14 0 -24.5 -14.5t-10.5 -26.5q0 -92 33 -268.5t33 -264.5q0 -63 -12 -129q-16 -43 -70.5 -66.5t-122.5 -23.5q-90 0 -166 33q-47 31 -65.5 81t-18.5 118z" />
<glyph unicode="l" horiz-adv-x="684" d="M31 246q0 63 8 108t44 157t89 287t53 312q0 98 -23.5 179t-82.5 161q-12 29 -13 55q0 43 24 77t65 48q45 12 80.5 17.5t78.5 5.5q74 0 128 -25t83 -84q12 -37 13 -82q0 -43 -13 -61q-70 -82 -99.5 -171t-29.5 -194q0 -123 28 -221t108.5 -310t80.5 -261q0 -104 -53 -181 q-53 -43 -132 -66.5t-157 -23.5q-147 0 -215 62q-35 41 -50 94t-15 117z" />
<glyph unicode="m" horiz-adv-x="1433" d="M66 197q2 12 82.5 266t80.5 356q0 39 -6 80q-55 102 -91 175t-36 143q0 25 2 36q31 35 92 35q37 0 60 -20l67 -90q14 8 59.5 62t86.5 54h53q47 0 77.5 -7t53.5 -34q37 -63 76 -127q41 70 104.5 115t143.5 45q104 0 168.5 -8t79 -32.5t20.5 -53.5t6 -51q0 -53 -35.5 -162 t-35.5 -152q0 -57 12 -87.5t97 -236.5t85 -282q0 -51 -12.5 -94t-46.5 -92q-25 -27 -67 -41t-85 -14q-20 0 -43.5 3t-52.5 11q-72 37 -103.5 118t-31.5 179l41 500q0 129 -16.5 184t-41.5 55q-20 0 -35.5 -41t-24.5 -102.5t-9 -126.5q0 -80 20.5 -258t20.5 -238 q0 -63 -8.5 -119.5t-28.5 -115.5q-14 -25 -42 -38.5t-59 -13.5q-35 0 -61 17q-63 55 -88 124.5t-25 160.5q0 61 20.5 210.5t20.5 204.5q0 113 -12 193t-33.5 111.5t-48.5 31.5q-59 0 -59 -127q0 -39 2 -79t4 -79q0 -80 37 -251.5t37 -257.5q0 -53 -6.5 -91.5t-26.5 -83.5 q-31 -39 -79 -56t-108 -17q-37 0 -72.5 6t-78.5 16q-45 23 -72.5 76t-27.5 111z" />
<glyph unicode="n" horiz-adv-x="1058" d="M47 141q0 113 94.5 346.5t94.5 319.5q0 39 -6.5 76t-18.5 69.5t-60.5 103t-48.5 109.5q0 20 8.5 38t28 39.5t66.5 21.5q37 0 69 -15q14 -23 31 -47t39 -12q37 59 99.5 82.5t148.5 23.5q35 0 80 -4t80 -8q35 0 54 -20.5t46 -67.5q4 -33 4 -49q0 -43 -31.5 -148.5 t-31.5 -152.5q0 -43 14 -91t108.5 -275.5t94.5 -364.5q0 -35 -33 -63.5t-76 -45.5q-43 -8 -75.5 -13t-67.5 -5q-74 0 -125 31.5t-72.5 86t-21.5 132.5q0 39 5 105.5t5 78.5q20 145 33.5 253.5t13.5 184.5q0 86 -12.5 145.5t-59.5 59.5q-49 0 -63 -59q-6 -74 -6 -144 q0 -104 11 -218t19.5 -196.5t11.5 -132t3 -61.5q0 -102 -19.5 -171t-52.5 -79t-88 -22.5t-104 -12.5q-57 0 -100.5 19.5t-62 59.5t-26.5 93z" />
<glyph unicode="o" horiz-adv-x="837" d="M39 584q0 164 47 327.5t131 296.5q35 45 82 73t100 28q68 0 115 -14.5t90 -53.5q98 -127 146.5 -298t48.5 -355q0 -174 -41 -338q-35 -100 -107.5 -174t-171.5 -86q-166 0 -245.5 62.5t-129.5 166.5q-33 80 -49 175t-16 190zM350 907q0 -39 8.5 -63.5t33 -32.5t52.5 -8 q31 0 47.5 7t20.5 26q0 82 -8 139t-37 108q-10 25 -37 25q-30 0 -53 -29q-14 -55 -20.5 -92t-6.5 -80z" />
<glyph unicode="p" horiz-adv-x="890" d="M33 207q0 106 54 223t85 182.5t31 126.5q0 68 -68.5 222.5t-68.5 220.5q47 68 133 98.5t190 30.5q92 0 189 -21q84 -23 149 -64t94 -104q14 -29 21.5 -57.5t7.5 -58.5q0 -33 -12 -62q-6 -33 -40 -66.5t-71 -50.5q-20 -12 -152.5 -26.5t-158.5 -100.5q0 -94 92 -297.5 t92 -302.5q-4 -37 -33.5 -63.5t-68.5 -38.5q-72 -8 -126.5 -12t-90.5 -4q-82 0 -132.5 12t-73 50t-32.5 79t-10 84zM385 1073q0 -29 7 -63.5t16 -65.5q4 -6 18 -6q18 0 38.5 16.5t45.5 47t25 67.5q0 12 -6.5 25.5t-30 20.5t-56.5 7h-34q-23 -12 -23 -49z" />
<glyph unicode="q" horiz-adv-x="987" d="M45 1057q0 25 2 37q-1 7 -1 14q0 39 30 77q35 44 84 79q143 55 311 55q113 0 213 -28t174 -85q-66 -221 -131 -442q0 -49 15.5 -94t52.5 -90q68 -51 107.5 -104.5t39.5 -119.5q0 -29 -12 -63q-33 -117 -119 -205t-205 -98q-35 -6 -67 -6q-123 0 -203 73q-27 33 -40 76 t-13 90q0 61 16 123t45 125q10 33 73.5 157t69.5 199q-27 16 -63.5 22.5t-75.5 6.5q-23 0 -43 -1t-41 -1q-55 0 -94 12.5t-70 51.5q-29 23 -42 60.5t-13 78.5zM371 1094q12 -33 45 -56.5t104 -33.5q23 14 32 50t13 79q-18 25 -45.5 35t-60.5 10h-25q-16 -4 -22 -4 q-43 -24 -43 -62q0 -9 2 -18z" />
<glyph unicode="r" horiz-adv-x="802" d="M37 205q0 74 75.5 258t80.5 213q12 49 12 92q0 76 -39 170q-33 70 -45 98.5t-29.5 75.5t-17.5 78q0 35 19.5 58.5t62.5 34.5t73 11q45 0 84.5 -21.5t51.5 -62.5q0 -20 1 -31.5t15 -17.5q51 39 104 80q66 43 125 43h23q51 -10 67.5 -31.5t36.5 -68.5q14 -100 31 -199 q0 -39 -11.5 -70.5t-45 -63.5t-88.5 -32q-25 0 -56 10q-35 18 -35 64q0 23 7.5 47.5t9.5 40.5q0 23 -27 23q-29 0 -48 -34t-32.5 -84t-13.5 -100q0 -98 63.5 -252.5t141.5 -338.5q2 -12 2 -33q0 -98 -76 -134t-121 -44.5t-98 -8.5q-78 0 -147.5 20.5t-108.5 57.5 q-47 70 -47 152z" />
<glyph unicode="s" horiz-adv-x="772" d="M35 465q0 164 49 307q14 31 45 31q20 0 31.5 -19.5t25 -42t41.5 -30.5q53 0 72 41q0 68 -95 136t-99.5 108t-4.5 63q0 57 26 107.5t91.5 91t173.5 40.5q51 0 94 -11t80 -36q80 -49 80 -166q0 -43 -12 -84q-2 -20 -16.5 -30t-35 -17.5t-36.5 -7.5q-80 0 -96 70q2 6 2 13v9 q0 55 -43 78q-29 10 -54.5 -6t-25.5 -41q10 -70 86 -123q68 -43 137 -84q102 -70 143 -191.5t41 -279.5q-18 -129 -71.5 -232.5t-153.5 -150.5q-72 -20 -139 -20q-59 0 -109.5 14t-91.5 51q-70 76 -102.5 181.5t-32.5 230.5z" />
<glyph unicode="t" horiz-adv-x="686" d="M33 1114q0 16 4 38t10 45.5t35 25.5q6 -2 18 -2q31 0 50.5 17t19.5 44v5q0 26 -16 70q-18 48 -19 66q0 31 23 56q66 39 157 39q107 -1 189 -52q10 -16 10 -36q0 -31 -31.5 -88.5t-31.5 -77.5t13 -31.5t50 -18.5q29 2 43 3q39 0 59 -21q6 -29 10.5 -48.5t4.5 -33.5 q0 -25 -15 -45q-20 -14 -93.5 -22.5t-81 -48.5t-7.5 -54v-22q0 -127 109.5 -342t109.5 -326q0 -41 -9 -83t-28 -83q-39 -61 -106.5 -89t-147.5 -28q-90 0 -196 33q-59 39 -88 102.5t-29 137.5q0 49 11.5 94t75 231.5t63.5 313.5q0 70 -15 129q-16 20 -83.5 38.5t-67.5 63.5z " />
<glyph unicode="u" horiz-adv-x="890" d="M41 1139q0 35 10 63q29 49 78 69.5t117 20.5q53 -8 95 -29.5t60 -68.5q8 -18 12.5 -43t4.5 -47q0 -51 -29 -155.5t-29 -139.5q0 -29 2.5 -43t11.5 -40t29.5 -35t51.5 -9q35 0 63 12q27 16 38 42t11 59q0 27 -6 61.5t-10 67.5q-33 106 -64 213q0 49 37 92q70 63 181 63 q45 0 83.5 -22.5t59.5 -61.5q2 -12 2 -24.5v-24.5q0 -66 -43 -224.5t-43 -223.5q0 -43 3 -62.5t18.5 -74t37.5 -125.5q25 -94 25 -160q0 -63 -17.5 -112.5t-68.5 -94.5t-130 -68.5t-171 -23.5q-115 0 -204 25.5t-132 74.5t-53.5 87t-10.5 52.5v22.5q0 66 44.5 242t44.5 249 q0 47 -9.5 90.5t-29.5 86.5q-6 20 -38 98t-32 121z" />
<glyph unicode="v" horiz-adv-x="1028" d="M47 1114q0 29 13.5 63.5t54.5 62.5t82 34t55 6q45 0 87 -14t87 -41q41 -35 56.5 -81t15.5 -104q0 -37 -5.5 -101.5t-5.5 -76.5q0 -125 50 -125q47 0 47 123q0 31 -10.5 109t-10.5 104q0 61 24.5 106.5t94.5 77.5q43 12 94 13q39 0 76 -8.5t68 -26.5q61 -47 61 -127 q0 -25 -6 -49q-78 -156 -122 -251t-85 -211t-66 -237q-14 -98 -26 -196q-31 -145 -78 -162.5t-72 -17.5q-31 0 -57.5 15t-48.5 42q-61 98 -86 329.5t-48.5 338t-138.5 196.5q-61 78 -80.5 121t-19.5 88z" />
<glyph unicode="w" horiz-adv-x="1067" d="M47 209q0 72 47 187.5t105 252.5q12 53 12 103q0 123 -47 214t-107 171q-6 16 -6 30q0 72 74 90q41 6 74.5 10.5t60.5 4.5q53 0 92 -13.5t62 -50.5q6 -18 6 -37q0 -25 -26 -86q-22 -53 -22 -73q0 -3 1 -6q8 -43 26 -43q12 0 26.5 20.5t25.5 44.5q18 88 36 178 q20 49 70 49q16 0 41 -6q16 -8 26.5 -30.5t10.5 -71.5v-49q0 -20 1 -39t17.5 -52.5t42.5 -33.5q18 0 19 37q0 18 -3 36.5t-19.5 67.5t-16.5 72q0 27 15.5 46t51.5 34q39 4 65 7t46 3q41 0 65.5 -7t43.5 -30q20 -39 20 -80q0 -57 -52 -156.5t-63 -136.5q-6 -37 -6 -73 q0 -113 79 -315t79 -310q0 -14 -2 -31.5t-7 -56.5t-79 -65.5t-172 -26.5q-68 0 -118 28.5t-79 92.5q-8 31 -12 73.5t-4 77.5q0 72 18.5 242t18.5 282q0 33 -8.5 60.5t-30.5 27.5q-18 0 -34.5 -23.5t-16.5 -68.5v-37q0 -39 8 -192.5t8 -239.5q0 -131 -16 -194 q-12 -45 -31 -74t-64 -47.5t-112 -18.5q-94 0 -156 43q-45 43 -64.5 89.5t-19.5 99.5z" />
<glyph unicode="x" horiz-adv-x="1021" d="M47 201q0 33 14.5 131t101.5 258t230 328q-27 66 -136.5 138t-133.5 99q-6 16 -6 29q0 33 33.5 50t56.5 30q31 6 61 6q78 0 140.5 -41t105.5 -115q25 6 66 41t94 80q51 37 123 37q47 0 86 -17.5t53 -50.5q0 -6 1 -19.5t-13.5 -25.5t-115.5 -81.5t-159 -133.5 q184 -279 256 -411t72 -304q0 -88 -23 -163q-41 -43 -105.5 -62.5t-131.5 -19.5q-70 0 -105 20q-43 35 -60 86t-17 117q0 53 17 176t17 168q0 68 -13 118t-52 95q-31 -43 -44.5 -94.5t-13.5 -112.5q0 -53 14.5 -159.5t14.5 -157.5q0 -76 -22.5 -134.5t-83.5 -107.5 q-68 -14 -127 -14q-72 0 -119 20q-41 33 -58.5 83t-17.5 114z" />
<glyph unicode="y" horiz-adv-x="802" d="M37 1169q4 35 30.5 65t60.5 37t69 7q49 0 87 -18.5t56 -63.5q8 -25 12 -70t4 -77q0 -113 33 -113q14 0 31.5 32.5t36 127t36 126t70.5 50.5q31 6 62 6q53 0 86.5 -17.5t33.5 -54.5q0 -49 -59 -110q-78 -88 -107.5 -127t-41.5 -97q-8 -23 -12.5 -51t-4.5 -53 q0 -84 73 -263t73 -241q0 -49 -17.5 -98t-58.5 -94q-90 -86 -232 -86q-80 0 -136 25.5t-88 74.5t-42 95t-10 77q0 100 96 278.5t96 264.5q0 51 -21.5 100t-55 84t-97 83t-63.5 101z" />
<glyph unicode="z" horiz-adv-x="772" d="M25 209q0 51 14 120.5t29 129.5q16 88 36.5 183t63.5 155q14 14 120.5 102t117.5 170q-18 14 -44 14q-25 0 -38 -13t-41.5 -67.5t-65.5 -58.5q-70 8 -103.5 69.5t-33.5 133.5q0 25 13 72t115.5 53t170.5 10q156 0 231.5 -14t124.5 -90q8 -16 8 -39q0 -18 -13 -37 t-158.5 -159t-176.5 -206q-10 -39 25 -39q14 0 35.5 10.5t58.5 53.5q23 20 39 30.5t33 10.5q18 0 30 -21q37 -84 48.5 -259t25.5 -232q14 -41 15 -84q0 -76 -56 -141q-55 -41 -132 -61.5t-159 -20.5q-119 0 -199.5 29.5t-107 78.5t-26.5 117z" />
<glyph unicode="&#xa2;" horiz-adv-x="858" d="M39 721q0 117 22.5 226.5t65.5 209.5q23 84 94.5 161t153.5 103q12 8 14 51.5t43 34.5q8 2 21 2q65 1 65 -69q63 -12 103.5 -33t55.5 -62.5t20 -70.5t5 -64q0 -37 -10 -65.5t-39 -50.5q-49 -14 -98 -27q-20 0 -38.5 17.5t-20.5 82t-31 84.5q-45 6 -67.5 -22.5 t-49.5 -85.5q-8 -25 -8 -56t14.5 -81t20.5 -74q20 -29 42.5 -37t82.5 -23q35 0 107.5 43t105.5 39q53 -72 79.5 -169t26.5 -201q0 -170 -65 -301q-23 -82 -154 -123t-131 -133q-10 2 -35 2q-39 0 -57.5 8t-11.5 43q0 51 -68 74.5t-84 48.5q-88 96 -131 230t-43 288z" />
<glyph unicode="&#xad;" d="M39 590q29 135 50.5 196.5t84.5 100.5q96 0 353.5 -4t275.5 -4q29 -35 28 -80q0 -45 -35.5 -130t-37.5 -98q-31 -25 -125 -39t-209 -14q-129 0 -240.5 19.5t-144.5 52.5z" />
<glyph unicode="&#x2000;" horiz-adv-x="958" />
<glyph unicode="&#x2001;" horiz-adv-x="1917" />
<glyph unicode="&#x2002;" horiz-adv-x="958" />
<glyph unicode="&#x2003;" horiz-adv-x="1917" />
<glyph unicode="&#x2004;" horiz-adv-x="639" />
<glyph unicode="&#x2005;" horiz-adv-x="479" />
<glyph unicode="&#x2006;" horiz-adv-x="319" />
<glyph unicode="&#x2007;" horiz-adv-x="319" />
<glyph unicode="&#x2008;" horiz-adv-x="239" />
<glyph unicode="&#x2009;" horiz-adv-x="383" />
<glyph unicode="&#x200a;" horiz-adv-x="106" />
<glyph unicode="&#x2010;" d="M39 590q29 135 50.5 196.5t84.5 100.5q96 0 353.5 -4t275.5 -4q29 -35 28 -80q0 -45 -35.5 -130t-37.5 -98q-31 -25 -125 -39t-209 -14q-129 0 -240.5 19.5t-144.5 52.5z" />
<glyph unicode="&#x2011;" d="M39 590q29 135 50.5 196.5t84.5 100.5q96 0 353.5 -4t275.5 -4q29 -35 28 -80q0 -45 -35.5 -130t-37.5 -98q-31 -25 -125 -39t-209 -14q-129 0 -240.5 19.5t-144.5 52.5z" />
<glyph unicode="&#x2012;" d="M39 590q29 135 50.5 196.5t84.5 100.5q96 0 353.5 -4t275.5 -4q29 -35 28 -80q0 -45 -35.5 -130t-37.5 -98q-31 -25 -125 -39t-209 -14q-129 0 -240.5 19.5t-144.5 52.5z" />
<glyph unicode="&#x2013;" horiz-adv-x="1101" d="M39 590q37 135 65 196.5t110 100.5q124 0 456.5 -4t356.5 -4q37 -35 36 -80q0 -45 -46 -130t-48 -98q-41 -25 -162.5 -39t-269.5 -14q-167 0 -311 19.5t-187 52.5z" />
<glyph unicode="&#x2014;" horiz-adv-x="2125" d="M39 590q75 135 130.5 196.5t218.5 100.5q248 0 914 -4t713 -4q75 -35 72 -80q0 -45 -92 -130t-97 -98q-80 -25 -323 -39t-540 -14q-334 0 -622.5 19.5t-373.5 52.5z" />
<glyph unicode="&#x2018;" horiz-adv-x="567" d="M25 1266q0 152 67.5 294t188.5 265q47 27 78.5 42t64.5 15q36 0 59 -31q-10 -25 -64 -110.5t-54 -145.5q0 -20 6 -42.5t58 -124t52 -162.5q0 -45 -32.5 -124t-78.5 -130t-96 -68q-74 0 -129 24.5t-82 82.5q-39 104 -38 215z" />
<glyph unicode="&#x2019;" horiz-adv-x="524" d="M25 1559q0 31 12 65q16 94 72.5 167t140.5 103q61 6 110 -29.5t74 -90.5q16 -45 22.5 -90.5t6.5 -102.5q0 -125 -42 -251t-114 -240q-68 -76 -112.5 -102.5t-88.5 -26.5q-16 0 -24 2q-14 23 -14 47q0 33 41 96t49 94q4 29 4 39q0 51 -68.5 159.5t-68.5 160.5z" />
<glyph unicode="&#x202f;" horiz-adv-x="383" />
<glyph unicode="&#x205f;" horiz-adv-x="479" />
<glyph unicode="&#x25fc;" horiz-adv-x="1269" d="M0 0v1270h1270v-1270h-1270z" />
</font>
</defs>
</svg>
